<?xml version="1.0" encoding="UTF-8"?>
<svg id="uuid-f1a43bc9-1c25-4d42-b6a0-18513df3c7d0" data-name="Layer 2" xmlns="http://www.w3.org/2000/svg" viewBox="0 0 29.26 34.97">
  <defs>
    <style>
      .uuid-bfe1cd58-da43-453b-8c7a-f73e411d7f70 {
        fill: #fff;
      }
    </style>
  </defs>
  <g id="uuid-7aa427ae-cab9-4084-b261-9ee23f72bcd3" data-name="Layer 1">
    <g>
      <path class="uuid-bfe1cd58-da43-453b-8c7a-f73e411d7f70" d="M10.36,31.37c.36,2.09,2.15,3.6,4.27,3.6s3.91-1.51,4.27-3.6l.02-.13h-8.58l.02.13Z"/>
      <path class="uuid-bfe1cd58-da43-453b-8c7a-f73e411d7f70" d="M29.23,25.4c-.35-.35-.71-.65-1.05-.93-1.45-1.21-2.71-2.25-2.71-6.57v-3.43c0-5.04-3.54-9.46-8.44-10.57.2-.39.3-.79.3-1.21,0-1.49-1.21-2.7-2.7-2.7s-2.7,1.21-2.7,2.7c0,.42.1.82.3,1.21C7.33,5.01,3.79,9.44,3.79,14.48v3.43c0,4.32-1.25,5.36-2.71,6.57-.35.29-.7.58-1.05.93l-.03.03v3.4h29.26v-3.4l-.03-.03Z"/>
    </g>
  </g>
</svg>