<?xml version="1.0" encoding="UTF-8"?>
<svg id="uuid-f1a66cec-550e-48d2-95f1-ec85a2acd0e7" data-name="Layer 2" xmlns="http://www.w3.org/2000/svg" viewBox="0 0 36.16 34.11">
  <defs>
    <style>
      .uuid-4123fe2f-25d5-4fd3-a7e1-d239f715df37 {
        fill: #fff;
      }
    </style>
  </defs>
  <g id="uuid-111a0be1-57a4-49b5-b169-2f29bbb1164b" data-name="Layer 1">
    <path class="uuid-4123fe2f-25d5-4fd3-a7e1-d239f715df37" d="M32.71,12.03c-3.27,0-4.61-2.31-2.98-5.15.94-1.64.38-3.74-1.26-4.68l-3.13-1.79c-1.43-.85-3.27-.34-4.12,1.08l-.2.34c-1.63,2.84-4.3,2.84-5.94,0l-.2-.34C14.06.07,12.21-.44,10.79.41l-3.13,1.79c-1.64.94-2.2,3.05-1.26,4.7,1.64,2.82.31,5.13-2.96,5.13-1.88,0-3.43,1.54-3.43,3.43v3.18c0,1.88,1.54,3.43,3.43,3.43,3.27,0,4.61,2.31,2.96,5.15-.94,1.64-.38,3.74,1.26,4.68l3.13,1.79c1.43.85,3.27.34,4.12-1.08l.2-.34c1.63-2.84,4.3-2.84,5.94,0l.2.34c.85,1.43,2.69,1.93,4.12,1.08l3.13-1.79c1.64-.94,2.2-3.05,1.26-4.68-1.64-2.84-.31-5.15,2.96-5.15,1.88,0,3.43-1.54,3.43-3.43v-3.18c-.02-1.88-1.55-3.43-3.45-3.43ZM18.07,22.93c-3.23,0-5.87-2.64-5.87-5.87s2.64-5.87,5.87-5.87,5.87,2.64,5.87,5.87-2.64,5.87-5.87,5.87Z"/>
  </g>
</svg>